<svg width="146" height="29" viewBox="0 0 146 29" fill="none" xmlns="http://www.w3.org/2000/svg">
<g id="Frame 2803">
<path id="Vector" d="M139.867 28V16.8306C139.867 15.8091 139.546 14.9892 138.905 14.371C138.29 13.7258 137.502 13.4032 136.54 13.4032C135.872 13.4032 135.284 13.5511 134.776 13.8468C134.269 14.1156 133.868 14.5188 133.574 15.0565C133.28 15.5672 133.133 16.1586 133.133 16.8306L130.768 15.6613C130.768 14.129 131.102 12.7849 131.77 11.629C132.438 10.4731 133.36 9.58602 134.536 8.96774C135.738 8.32258 137.088 8 138.584 8C140.027 8 141.297 8.34946 142.392 9.04839C143.515 9.72043 144.397 10.621 145.038 11.75C145.679 12.879 146 14.1156 146 15.4597V28H139.867ZM127 28V8.40323H133.133V28H127Z" fill="#010101"/>
<path id="Vector_2" d="M114.751 29C112.669 29 110.812 28.5591 109.178 27.6772C107.57 26.7677 106.306 25.5138 105.383 23.9154C104.461 22.3169 104 20.5118 104 18.5C104 16.4882 104.448 14.6969 105.344 13.126C106.266 11.5276 107.505 10.2736 109.059 9.36417C110.614 8.45473 112.366 8 114.316 8C116.213 8 117.887 8.42717 119.336 9.2815C120.785 10.1358 121.918 11.3209 122.735 12.8366C123.578 14.3524 124 16.0886 124 18.0453C124 18.4035 123.974 18.7894 123.921 19.2028C123.895 19.5886 123.829 20.0433 123.723 20.5669L107.162 20.6083V16.2677L121.154 16.2264L118.545 18.0453C118.519 16.8878 118.348 15.937 118.032 15.1929C117.715 14.4213 117.241 13.8425 116.609 13.4567C116.003 13.0433 115.252 12.8366 114.356 12.8366C113.407 12.8366 112.577 13.0709 111.866 13.5394C111.18 13.9803 110.64 14.6142 110.245 15.4409C109.876 16.2677 109.692 17.2736 109.692 18.4587C109.692 19.6437 109.889 20.6634 110.285 21.5177C110.706 22.3445 111.286 22.9921 112.024 23.4606C112.788 23.9016 113.684 24.122 114.711 24.122C115.66 24.122 116.516 23.9567 117.281 23.626C118.045 23.2677 118.717 22.7441 119.296 22.0551L122.617 25.5276C121.668 26.685 120.522 27.5532 119.178 28.1319C117.834 28.7106 116.358 29 114.751 29Z" fill="#010101"/>
<path id="Vector_3" d="M92.751 29C90.6693 29 88.8116 28.5591 87.1779 27.6772C85.5705 26.7677 84.3057 25.5138 83.3834 23.9154C82.4611 22.3169 82 20.5118 82 18.5C82 16.4882 82.448 14.6969 83.3439 13.126C84.2661 11.5276 85.5046 10.2736 87.0593 9.36417C88.614 8.45473 90.3663 8 92.3162 8C94.2134 8 95.8867 8.42717 97.336 9.2815C98.7852 10.1358 99.9183 11.3209 100.735 12.8366C101.578 14.3524 102 16.0886 102 18.0453C102 18.4035 101.974 18.7894 101.921 19.2028C101.895 19.5886 101.829 20.0433 101.723 20.5669L85.1621 20.6083V16.2677L99.1542 16.2264L96.5455 18.0453C96.5191 16.8878 96.3478 15.937 96.0316 15.1929C95.7154 14.4213 95.2411 13.8425 94.6087 13.4567C94.0026 13.0433 93.2516 12.8366 92.3557 12.8366C91.4071 12.8366 90.5771 13.0709 89.8656 13.5394C89.1805 13.9803 88.6403 14.6142 88.2451 15.4409C87.8762 16.2677 87.6917 17.2736 87.6917 18.4587C87.6917 19.6437 87.8893 20.6634 88.2846 21.5177C88.7062 22.3445 89.2859 22.9921 90.0237 23.4606C90.7879 23.9016 91.6838 24.122 92.7115 24.122C93.6601 24.122 94.5165 23.9567 95.2806 23.626C96.0448 23.2677 96.7167 22.7441 97.2964 22.0551L100.617 25.5276C99.668 26.685 98.5217 27.5532 97.1779 28.1319C95.834 28.7106 94.3584 29 92.751 29Z" fill="#010101"/>
<path id="Vector_4" d="M56.72 28L50 9H56L60.16 22.8004L58.4 22.8395L63 9H67.96L72.6 22.8395L70.8 22.8004L75 9H81L74.28 28H69.28L64.76 14.8642H66.28L61.68 28H56.72Z" fill="#010101"/>
<path id="Vector_5" d="M38.4236 28V0H44.5764V28H38.4236ZM34 13.4905V8.19214H49V13.4905H34Z" fill="#010101"/>
<path id="Vector_6" d="M25 28V8H31V28H25Z" fill="#2945FF"/>
<path id="Vector_7" d="M25 4.76837e-07V6H31V4.76837e-07H25Z" fill="#2945FF"/>
<path id="Vector_8" d="M4.88889 28V23.1615H11.6519C12.9012 23.1615 13.879 22.8045 14.5852 22.0907C15.2914 21.3768 15.6444 20.5043 15.6444 19.4731C15.6444 18.7592 15.4815 18.1246 15.1556 17.5694C14.8296 17.0142 14.3679 16.5779 13.7704 16.2606C13.2 15.9433 12.4938 15.7847 11.6519 15.7847H4.88889V11.0652H11.1222C12.1815 11.0652 13.037 10.814 13.6889 10.3116C14.3407 9.78281 14.6667 8.98961 14.6667 7.93201C14.6667 6.90085 14.3407 6.13409 13.6889 5.63173C13.037 5.10293 12.1815 4.83853 11.1222 4.83853H4.88889V0H12.3444C14.1914 0 15.7531 0.3305 17.0296 0.9915C18.3333 1.6525 19.3247 2.53824 20.0037 3.64873C20.6827 4.75921 21.0222 5.98867 21.0222 7.33711C21.0222 9.05571 20.4519 10.5099 19.3111 11.6997C18.1704 12.8895 16.4864 13.7092 14.2593 14.1586L14.4222 12.0567C16.8395 12.5061 18.7 13.4183 20.0037 14.7932C21.3346 16.1681 22 17.8602 22 19.8697C22 21.4032 21.6062 22.7913 20.8185 24.034C20.058 25.2502 18.9444 26.2153 17.4778 26.9292C16.0383 27.6431 14.3 28 12.263 28H4.88889ZM0 28V0H6.31481V28H0Z" fill="#010101"/>
</g>
</svg>
