<svg width="10" height="10" viewBox="0 0 10 10" fill="none" xmlns="http://www.w3.org/2000/svg">
<g id="Edit">
<mask id="mask0_25_249" style="mask-type:alpha" maskUnits="userSpaceOnUse" x="0" y="0" width="10" height="10">
<path id="Shape" d="M3.39223 8.58693L7.55899 4.42016L5.57986 2.44103L1.41309 6.60779C1.35573 6.66523 1.31498 6.73712 1.29517 6.81584L0.833344 9.16668L3.18373 8.70485C3.26265 8.68512 3.33484 8.64432 3.39223 8.58693ZM8.90412 3.07503C9.07224 2.90687 9.16668 2.67882 9.16668 2.44103C9.16668 2.20324 9.07224 1.97519 8.90412 1.80703L8.19299 1.0959C8.02483 0.927785 7.79678 0.833344 7.55899 0.833344C7.3212 0.833344 7.09315 0.927785 6.92499 1.0959L6.21386 1.80703L8.19299 3.78616L8.90412 3.07503Z" fill="#006FFD"/>
</mask>
<g mask="url(#mask0_25_249)">
<rect id="Fill" width="10" height="10" fill="white"/>
</g>
</g>
</svg>
