<svg width="25" height="24" viewBox="0 0 25 24" fill="none" xmlns="http://www.w3.org/2000/svg">
<g id="Frame">
<path id="Vector" d="M21.875 12C21.8749 14.2075 21.0959 16.3441 19.6751 18.0335C18.2543 19.723 16.283 20.8569 14.1083 21.2356C11.9336 21.6143 9.69497 21.2134 7.78678 20.1036C5.87859 18.9939 4.4232 17.2463 3.67696 15.1689C2.93071 13.0914 2.94147 10.8172 3.70734 8.7469C4.47322 6.67658 5.94508 4.94291 7.86368 3.85124C9.78229 2.75957 12.0246 2.37992 14.1956 2.77917C16.3666 3.17842 18.3272 4.33095 19.7319 6.03377C19.8259 6.14772 19.8966 6.27907 19.9399 6.42033C19.9832 6.5616 19.9983 6.71001 19.9842 6.85708C19.9701 7.00416 19.9273 7.14703 19.858 7.27754C19.7887 7.40804 19.6944 7.52362 19.5805 7.61768C19.4665 7.71174 19.3352 7.78244 19.1939 7.82573C19.0526 7.86903 18.9042 7.88407 18.7572 7.87002C18.6101 7.85596 18.4672 7.81306 18.3367 7.74379C18.2062 7.67452 18.0906 7.58022 17.9966 7.46627C16.9598 6.20951 15.5237 5.34599 13.9276 5.01963C12.3314 4.69327 10.6716 4.92378 9.2248 5.67274C7.77798 6.42171 6.63153 7.64388 5.97651 9.13559C5.3215 10.6273 5.19748 12.2984 5.62513 13.8705C6.05279 15.4425 7.00628 16.8206 8.3267 17.7749C9.64712 18.7292 11.2547 19.2022 12.8816 19.115C14.5084 19.0278 16.0562 18.3857 17.2671 17.2958C18.478 16.2058 19.2787 14.7338 19.5359 13.125H12.5C12.2016 13.125 11.9155 13.0065 11.7045 12.7955C11.4935 12.5845 11.375 12.2984 11.375 12C11.375 11.7017 11.4935 11.4155 11.7045 11.2045C11.9155 10.9936 12.2016 10.875 12.5 10.875H20.75C21.0484 10.875 21.3345 10.9936 21.5455 11.2045C21.7565 11.4155 21.875 11.7017 21.875 12Z" fill="white"/>
</g>
</svg>
