<svg width="20" height="19" viewBox="0 0 20 19" fill="none" xmlns="http://www.w3.org/2000/svg">
<path id="Vector" d="M18.5727 0.0112488C18.2402 -0.0259618 17.8789 0.0288315 17.5158 0.180313C17.0657 0.367157 10.0128 3.49828 3.4383 6.41918L1.26592 7.38408C0.424724 7.74405 0 8.32947 0 9.11801C0 9.6701 0.221395 10.4189 1.27764 10.8602L4.94451 12.4106C5.26159 13.4145 5.99804 15.7454 6.18308 16.3651C6.29311 16.7324 6.57102 17.6579 7.27318 17.8743C7.41721 17.926 7.56751 17.9526 7.72055 17.9526C8.16365 17.9526 8.4827 17.735 8.63873 17.6083L10.9694 15.528L13.8001 18.2908C13.9091 18.4079 14.4862 19 15.2614 19C16.2286 19 16.9623 18.1502 17.1153 17.3279C17.1983 16.8772 19.9285 2.41525 19.9285 2.41525C20.1735 1.25513 19.7329 0.653312 19.4498 0.396797C19.2073 0.177756 18.9051 0.0484594 18.5727 0.0112488ZM17.9104 2.29155C17.5333 4.28667 15.4777 15.1768 15.1656 16.7465L11.028 12.7075L8.22067 15.2167L8.99819 12.0065C8.99819 12.0065 14.362 6.27649 14.6851 5.94291C14.9451 5.67584 14.9996 5.58222 14.9996 5.48933C14.9996 5.36582 14.9394 5.27697 14.8003 5.27697C14.6753 5.27697 14.5055 5.40341 14.4155 5.46253C13.2719 6.21499 8.40215 9.14289 6.00531 10.5819L2.52793 9.11595L4.21583 8.36754C8.51583 6.45687 16.174 3.0537 17.9104 2.29155Z" fill="#2945FF"/>
</svg>
